<svg width="37" height="38" viewBox="0 0 37 38" version="1.1" xmlns="http://www.w3.org/2000/svg" xmlns:xlink="http://www.w3.org/1999/xlink">
<title>Group</title>
<desc>Created using Figma</desc>
<g id="Canvas" transform="translate(442 223)">
<g id="Group">
<g id="Group">
<g id="Vector">
<use xlink:href="#path0_fill" transform="translate(-442 -223)"/>
</g>
<g id="Vector">
<use xlink:href="#path1_fill" transform="translate(-442 -186.7)"/>
</g>
<g id="Vector">
<use xlink:href="#path2_fill" transform="translate(-428 -216.4)"/>
</g>
</g>
</g>
</g>
<defs>
<path id="path0_fill" d="M 35.3 0L 1.5 0C 0.7 0 0 0.7 0 1.5L 0 26.1C 0 26.9 0.7 27.6 1.5 27.6L 35.3 27.6C 36.1 27.6 36.8 26.9 36.8 26.1L 36.8 1.5C 36.8 0.7 36.1 0 35.3 0ZM 35.8 26.1C 35.8 26.4 35.6 26.6 35.3 26.6L 1.5 26.6C 1.2 26.6 1 26.4 1 26.1L 1 1.5C 1 1.2 1.2 1 1.5 1L 35.3 1C 35.6 1 35.8 1.2 35.8 1.5L 35.8 26.1Z"/>
<path id="path1_fill" d="M 36.8 0L 0 0L 0 0.999999L 36.8 0.999999L 36.8 0Z"/>
<path id="path2_fill" d="M 0 14.4L 12.5 7.2L 0 -9.53674e-08L 0 14.4ZM 1 1.7L 10.5 7.2L 1 12.6L 1 1.7Z"/>
</defs>
</svg>
