<svg width="43" height="40" viewBox="0 0 43 40" version="1.1" xmlns="http://www.w3.org/2000/svg" xmlns:xlink="http://www.w3.org/1999/xlink">
<title>Group</title>
<desc>Created using Figma</desc>
<g id="Canvas" transform="translate(445 100)">
<g id="Group">
<g id="Group">
<g id="Vector">
<use xlink:href="#path0_fill" transform="translate(-438.496 -90.6444)"/>
</g>
<g id="Vector">
<use xlink:href="#path1_fill" transform="translate(-445 -87.9598)"/>
</g>
<g id="Vector">
<use xlink:href="#path2_fill" transform="translate(-436.2 -96.8041)"/>
</g>
<g id="Vector">
<use xlink:href="#path3_fill" transform="translate(-424.196 -100)"/>
</g>
<g id="Vector">
<use xlink:href="#path4_fill" transform="translate(-414.535 -96.7598)"/>
</g>
<g id="Vector">
<use xlink:href="#path5_fill" transform="translate(-407.435 -87.9392)"/>
</g>
</g>
</g>
</g>
<defs>
<path id="path0_fill" d="M 22.4 2.04444C 18.9 0.0444441 14.9 -0.555556 11 0.544444C 10.7 0.644444 10.6 0.844444 10.6 1.14444C 10.7 1.44444 10.9 1.54444 11.2 1.54444C 13.9 0.844444 16.7 0.944445 19.2 1.74444C 15.9 2.54444 11.8 6.24444 8.7 11.6444C 7.2 14.2444 6.2 16.8444 5.6 19.1444C 4.5 18.0444 3.6 16.7444 2.9 15.5444C 1.5 12.8444 1.4 10.2444 2.5 8.24444C 3.8 5.94444 6.8 4.74444 10.6 5.04444C 10.9 5.04444 11.1 4.84444 11.1 4.54444C 11.1 4.24444 10.9 4.04444 10.6 4.04444C 6.4 3.74444 3.1 5.14444 1.6 7.74444C 0.3 10.0444 0.4 12.9444 2 16.0444C 2.8 17.5444 3.9 19.0444 5.3 20.3444C 4.9 22.4444 4.9 24.3444 5.3 25.7444C 3.2 23.8444 1.6 21.3444 1 18.4444C 0.9 18.1444 0.7 18.0444 0.4 18.0444C 0.1 18.1444 -8.88178e-16 18.3444 -8.88178e-16 18.6444C 1 22.7444 3.5 26.1444 7.2 28.2444C 9.5 29.5444 12.1 30.2444 14.8 30.2444C 16.1 30.2444 17.4 30.0444 18.7 29.7444C 22.5 28.7444 25.8 26.2444 27.8 22.8444C 27.8 22.8444 27.8 22.8444 27.8 22.7444C 27.8 22.7444 27.8 22.6444 27.9 22.6444C 32.1 15.5444 29.6 6.24444 22.4 2.04444ZM 18.5 28.8444C 14.8 29.8444 11 29.3444 7.8 27.4444C 6.3 26.5444 5.8 24.1444 6.3 21.1444C 7.4 22.0444 8.6 22.9444 9.9 23.7444C 13.2 25.6444 16.7 26.6444 19.9 26.6444C 20.1 26.6444 20.3 26.6444 20.5 26.6444C 21.8 26.5444 22.9 26.3444 24 26.0444C 22.4 27.3444 20.5 28.3444 18.5 28.8444ZM 27.1 22.2444C 27.1 22.3444 27 22.3444 27 22.4444C 25.8 24.4444 23.5 25.5444 20.5 25.6444C 17.3 25.7444 13.8 24.7444 10.4 22.8444C 8.9 22.0444 7.6 21.0444 6.5 19.9444C 7 17.5444 8.1 14.7444 9.6 12.1444C 13.4 5.54444 19.1 1.24444 21.9 2.94444C 28.7 6.84444 31 15.5444 27.1 22.2444Z"/>
<path id="path1_fill" d="M 4.90405 2.45981L 0.804052 0.059808C 0.504052 -0.040192 0.204052 -0.0401922 0.104052 0.259808C -0.0959482 0.459808 0.00405183 0.759808 0.304052 0.959808L 4.40405 3.35981C 4.50405 3.35981 4.60405 3.45981 4.60405 3.45981C 4.80405 3.45981 4.90405 3.35981 5.00405 3.25981C 5.20405 2.85981 5.10405 2.55981 4.90405 2.45981Z"/>
<path id="path2_fill" d="M 2.50405 4.90405C 2.60405 5.10405 2.80405 5.10405 2.90405 5.10405C 3.00405 5.10405 3.10405 5.10405 3.10405 5.00405C 3.30405 4.90405 3.40405 4.60405 3.30405 4.30405L 0.904052 0.304052C 0.804052 0.00405183 0.504052 -0.0959482 0.304052 0.104052C 0.00405219 0.204052 -0.0959485 0.504052 0.104051 0.804052L 2.50405 4.90405Z"/>
<path id="path3_fill" d="M 0.499999 5.8C 0.799999 5.8 0.999999 5.6 0.999999 5.3L 0.999999 0.5C 0.999999 0.2 0.799999 0 0.499999 0C 0.199999 0 -7.62939e-07 0.2 -7.62939e-07 0.5L -7.62939e-07 5.3C -7.62939e-07 5.5 0.199999 5.8 0.499999 5.8Z"/>
<path id="path4_fill" d="M 0.239231 5.05981C 0.339231 5.05981 0.43923 5.15981 0.43923 5.15981C 0.63923 5.15981 0.73923 5.05981 0.83923 4.95981L 3.33923 0.759808C 3.43923 0.559808 3.43923 0.259808 3.13923 0.0598076C 2.93923 -0.0401924 2.63923 -0.0401924 2.43923 0.259808L 0.0392305 4.35981C -0.0607695 4.55981 0.0392312 4.85981 0.239231 5.05981Z"/>
<path id="path5_fill" d="M 5.03923 0.239231C 4.93923 0.0392307 4.63923 -0.0607691 4.33923 0.0392309L 0.23923 2.43923C 0.0392297 2.53923 -0.060771 2.83923 0.039229 3.13923C 0.139229 3.33923 0.33923 3.33923 0.43923 3.33923C 0.53923 3.33923 0.639231 3.33923 0.639231 3.23923L 4.73923 0.83923C 5.03923 0.73923 5.13923 0.439231 5.03923 0.239231Z"/>
</defs>
</svg>
