<svg width="26" height="38" viewBox="0 0 26 38" version="1.1" xmlns="http://www.w3.org/2000/svg" xmlns:xlink="http://www.w3.org/1999/xlink">
<title>Group</title>
<desc>Created using Figma</desc>
<g id="Canvas" transform="translate(436 348)">
<g id="Group">
<g id="Group">
<g id="Vector">
<use xlink:href="#path0_fill" transform="translate(-425.9 -327.4)"/>
</g>
<g id="Vector">
<use xlink:href="#path1_fill" transform="translate(-436 -348)"/>
</g>
</g>
</g>
</g>
<defs>
<path id="path0_fill" d="M 1.4 4.8L 1.4 7C 1.4 7.6 1.9 8.2 2.6 8.2C 3.3 8.2 3.8 7.7 3.8 7L 3.8 4.8C 4.6 4.4 5.2 3.5 5.2 2.6C 5.2 1.2 4.1 3.8147e-07 2.6 3.8147e-07C 1.1 3.8147e-07 3.8147e-07 1.1 3.8147e-07 2.6C 0.1 3.5 0.6 4.4 1.4 4.8ZM 2.6 1C 3.5 1 4.2 1.7 4.2 2.6C 4.2 3.3 3.8 3.8 3.1 4L 2.8 4.1L 2.8 7C 2.8 7.2 2.5 7.2 2.5 7L 2.5 4.1L 2.2 4C 1.6 3.8 1.1 3.2 1.1 2.6C 1.1 1.7 1.8 1 2.6 1Z"/>
<path id="path1_fill" d="M 24.9 11.8L 20 11.8L 20 7.7C 20 3.5 16.6 0 12.3 0C 8 0 4.6 3.5 4.6 7.7L 4.6 11.8L 0.5 11.8C 0.2 11.8 0 12 0 12.3L 0 36.7C 0 37 0.2 37.2 0.5 37.2L 24.9 37.2C 25.2 37.2 25.4 37 25.4 36.7L 25.4 12.3C 25.4 12.1 25.2 11.8 24.9 11.8ZM 5.6 7.7C 5.6 4 8.6 1 12.3 1C 16 1 19 4 19 7.7L 19 11.8L 5.6 11.8L 5.6 7.7ZM 24.4 36.3L 1 36.3L 1 12.8L 24.4 12.8L 24.4 36.3Z"/>
</defs>
</svg>
