<svg id="Markers" xmlns="http://www.w3.org/2000/svg" viewBox="0 0 43.62 49"><title>US_OPEN_SMT_L_CC_Alt_v003</title><path d="M138.61,273.48a4.31,4.31,0,0,0-1.53-.53V261.38a4.35,4.35,0,1,0-4.09-7l-10-5.75a4.35,4.35,0,1,0-8,0l-10,5.75a4.35,4.35,0,1,0-4.09,7V273a4.35,4.35,0,1,0,4.06,7l10,6a4.29,4.29,0,0,0-.26,1.43,4.35,4.35,0,1,0,8.36-1.68l10-5.76A4.35,4.35,0,1,0,138.61,273.48Zm-3.85-19.3a3.32,3.32,0,0,1,1.67-.45,3.38,3.38,0,0,1,.87.12A3.35,3.35,0,1,1,134.76,254.18Zm-2.27,1.1a4.38,4.38,0,0,0-.25.67,4.31,4.31,0,0,0,3.84,5.45v11.51a4.34,4.34,0,0,0-3.11,1.75l-6.79-3.92v-7.45a0.5,0.5,0,0,0-.25-0.43l-6.46-3.73v-7.83a4.33,4.33,0,0,0,3-1.76ZM119,260l6.21,3.58v7.17L119,274.33l-6.21-3.58v-7.17Zm0-16.33a3.35,3.35,0,1,1-3.35,3.35A3.35,3.35,0,0,1,119,243.66Zm-3.52,5.88a4.33,4.33,0,0,0,3,1.77v7.83L112,262.86a0.5,0.5,0,0,0-.25.43v7.45L105,274.66a4.34,4.34,0,0,0-3.12-1.75V261.41a4.3,4.3,0,0,0,3.6-6.13Zm-16.83,5.87a3.33,3.33,0,0,1,2-1.56,3.38,3.38,0,0,1,.87-0.12A3.35,3.35,0,1,1,98.62,255.41Zm4.57,24.73a3.35,3.35,0,1,1,1.22-4.57A3.35,3.35,0,0,1,103.18,280.15ZM119,290.66a3.35,3.35,0,1,1,3.35-3.35A3.35,3.35,0,0,1,119,290.66Zm3.51-5.89a4.32,4.32,0,0,0-7.16.2l-9.88-5.9a4.34,4.34,0,0,0,0-3.55l6.79-3.92,6.46,3.73a0.5,0.5,0,0,0,.5,0l6.46-3.73,6.79,3.92a4.33,4.33,0,0,0,0,3.48Zm16.85-5.86a3.34,3.34,0,1,1-1.22-4.57A3.35,3.35,0,0,1,139.33,278.92Z" transform="translate(-97.16 -242.66)"/></svg>