<?xml version="1.0" encoding="UTF-8" standalone="no"?>
<svg width="50px" height="30px" viewBox="0 0 50 30" version="1.1" xmlns="http://www.w3.org/2000/svg" xmlns:xlink="http://www.w3.org/1999/xlink">
    <!-- Generator: Sketch 43.2 (39069) - http://www.bohemiancoding.com/sketch -->
    <title>two</title>
    <desc>Created with Sketch.</desc>
    <defs></defs>
    <g id="Page-1" stroke="none" stroke-width="1" fill="none" fill-rule="evenodd">
        <g id="two" fill-rule="nonzero" fill="#000000">
            <path d="M43.4,11.7 L43.4,11.2 C43.4,5 38.4,0 32.3,0 C27.4,0 23.3,3.1 21.7,7.5 C20.4,6 18.4,5 16.1,5 C12,5 8.7,8.3 8.7,12.4 C3.9,12.4 0,16.3 0,21.1 C0,25.9 3.9,29.8 8.7,29.8 L24.2,29.8 L40.3,29.8 C45.5,29.8 49.6,25.6 49.6,20.5 C49.7,16.4 47.1,13 43.4,11.7 Z M40.3,28.8 L24.2,28.8 L8.7,28.8 C4.5,28.8 1,25.4 1,21.1 C1,16.9 4.4,13.4 8.7,13.4 L9.7,13.4 L9.7,12.4 C9.7,8.8 12.6,6 16.1,6 C18,6 19.7,6.8 21,8.2 L22.1,9.5 L22.7,7.9 C24.1,3.7 28,1 32.3,1 C37.9,1 42.5,5.6 42.5,11.2 L42.5,11.6 L42.5,11.7 L42.5,12.4 L43.2,12.6 C46.5,13.8 48.8,16.9 48.8,20.4 C48.7,25.1 44.9,28.8 40.3,28.8 Z" id="path0_fill"></path>
        </g>
    </g>
</svg>