<svg width="51" height="46" viewBox="0 0 51 46" version="1.1" xmlns="http://www.w3.org/2000/svg" xmlns:xlink="http://www.w3.org/1999/xlink">
<title>Group</title>
<desc>Created using Figma</desc>
<g id="Canvas" transform="translate(449 165)">
<g id="Group">
<g id="Group">
<g id="Vector">
<use xlink:href="#path0_fill" transform="translate(-428 -146.87)"/>
</g>
<g id="Vector">
<use xlink:href="#path0_fill" transform="translate(-407 -146.87)"/>
</g>
<g id="Vector">
<use xlink:href="#path1_fill" transform="translate(-449 -146.87)"/>
</g>
<g id="Vector">
<use xlink:href="#path2_fill" transform="translate(-417.408 -164.956)"/>
</g>
<g id="Vector">
<use xlink:href="#path3_fill" transform="translate(-438.408 -128.708)"/>
</g>
<g id="Vector">
<use xlink:href="#path4_fill" transform="translate(-438.53 -165)"/>
</g>
<g id="Vector">
<use xlink:href="#path5_fill" transform="translate(-417.464 -128.63)"/>
</g>
</g>
</g>
</g>
<defs>
<path id="path0_fill" d="M 4.5 7.62939e-07C 2 7.62939e-07 0 2 0 4.5C 0 7 2 9 4.5 9C 7 9 9 7 9 4.5C 9 2 7 7.62939e-07 4.5 7.62939e-07ZM 4.5 8C 2.6 8 1 6.4 1 4.5C 1 2.6 2.6 1 4.5 1C 6.4 1 8 2.6 8 4.5C 8 6.4 6.5 8 4.5 8Z"/>
<path id="path1_fill" d="M 4.5 7.62939e-07C 2 7.62939e-07 0 2 0 4.5C 0 7 2 9 4.5 9C 7 9 9 7 9 4.5C 9 2 7 7.62939e-07 4.5 7.62939e-07ZM 4.5 8C 2.6 8 1 6.4 1 4.5C 1 2.6 2.6 1 4.5 1C 6.4 1 8 2.6 8 4.5C 8 6.4 6.4 8 4.5 8Z"/>
<path id="path2_fill" d="M 2.20762 8.28524C 2.90762 8.68524 3.70762 8.88524 4.40762 8.88524C 6.00762 8.88524 7.50762 8.08524 8.30762 6.68524C 9.50762 4.58524 8.80762 1.78524 6.70762 0.585239C 4.50762 -0.614761 1.80762 0.0852387 0.607622 2.18524C -0.592378 4.28524 0.00762033 7.08524 2.20762 8.28524ZM 1.40762 2.58524C 2.10762 1.48524 3.20762 0.885239 4.40762 0.885239C 5.00762 0.885239 5.60762 1.08524 6.10762 1.38524C 7.80762 2.38524 8.30762 4.48524 7.40762 6.18524C 6.40762 7.88524 4.30762 8.38524 2.60762 7.48524C 0.907622 6.58524 0.407621 4.28524 1.40762 2.58524Z"/>
<path id="path3_fill" d="M 6.7081 0.637829C 5.7081 0.0378293 4.4081 -0.162171 3.3081 0.137829C 2.1081 0.437829 1.2081 1.23783 0.608103 2.23783C 0.00810343 3.23783 -0.191896 4.53783 0.208104 5.63783C 0.508104 6.83783 1.3081 7.73783 2.3081 8.33783C 3.0081 8.73783 3.8081 8.93783 4.5081 8.93783C 4.9081 8.93783 5.3081 8.83783 5.7081 8.73783C 6.9081 8.43783 7.8081 7.63783 8.4081 6.63783C 9.0081 5.63783 9.2081 4.33783 8.8081 3.23783C 8.5081 2.23783 7.7081 1.23783 6.7081 0.637829ZM 7.4081 6.33783C 6.9081 7.13783 6.2081 7.73783 5.3081 7.93783C 4.4081 8.13783 3.5081 8.03783 2.6081 7.63783C 1.8081 7.13783 1.2081 6.43783 1.0081 5.53783C 0.808104 4.63783 0.908104 3.73783 1.4081 2.83783C 1.9081 2.03783 2.6081 1.43783 3.5081 1.23783C 3.8081 1.13783 4.1081 1.13783 4.4081 1.13783C 5.0081 1.13783 5.6081 1.33783 6.1081 1.63783C 6.9081 2.13783 7.5081 2.83783 7.7081 3.73783C 8.0081 4.53783 7.9081 5.53783 7.4081 6.33783Z"/>
<path id="path4_fill" d="M 4.52968 8.92968C 5.32968 8.92968 6.02968 8.72968 6.72968 8.32968C 8.82968 7.12968 9.62968 4.32968 8.32968 2.22968C 7.12968 0.12968 4.32968 -0.67032 2.22968 0.62968C 0.12968 1.82968 -0.670319 4.62968 0.629681 6.72968C 1.42968 8.12968 3.02968 8.92968 4.52968 8.92968ZM 2.82968 1.42968C 3.32968 1.02968 3.92968 0.92968 4.52968 0.92968C 5.72968 0.92968 6.92968 1.52968 7.52968 2.62968C 8.52968 4.32968 7.92968 6.42968 6.22968 7.42968C 4.52968 8.42968 2.42968 7.82968 1.42968 6.12968C 0.52968 4.52968 1.12968 2.32968 2.82968 1.42968Z"/>
<path id="path5_fill" d="M 5.66382 0.159456C 4.46382 -0.140544 3.26382 -0.0405442 2.26382 0.659456C 1.26382 1.25946 0.463817 2.25946 0.163817 3.35946C -0.136183 4.55946 -0.0361856 5.75946 0.563814 6.75946C 1.16381 7.75946 2.16382 8.55946 3.26382 8.85946C 3.66382 8.95946 4.06382 9.05946 4.46382 9.05946C 5.26382 9.05946 5.96382 8.85946 6.66382 8.45946C 7.66382 7.85946 8.46381 6.85946 8.76381 5.75946C 9.06381 4.55946 8.96382 3.35946 8.36382 2.35946C 7.76382 1.35946 6.86382 0.459456 5.66382 0.159456ZM 7.86382 5.35946C 7.66382 6.25946 7.06382 7.05946 6.26382 7.45946C 5.46382 7.95946 4.46381 8.05946 3.56381 7.75946C 2.66381 7.45946 1.86382 6.95946 1.46382 6.15946C 0.963816 5.35946 0.863814 4.35946 1.06381 3.45946C 1.26381 2.55946 1.86382 1.75946 2.66382 1.35946C 3.16382 1.05946 3.76382 0.859457 4.36382 0.859457C 4.66382 0.859457 4.96382 0.859459 5.26382 0.959459C 6.16382 1.15946 6.96382 1.75946 7.36382 2.55946C 7.76382 3.35946 8.16382 4.45946 7.86382 5.35946Z"/>
</defs>
</svg>
