<svg width="48" height="48" viewBox="0 0 48 48" version="1.1" xmlns="http://www.w3.org/2000/svg" xmlns:xlink="http://www.w3.org/1999/xlink">
<title>Group</title>
<desc>Created using Figma</desc>
<g id="Canvas" transform="translate(447 290)">
<g id="Group">
<g id="Group">
<g id="Vector">
<use xlink:href="#path0_fill" transform="translate(-447 -290)"/>
</g>
<g id="Vector">
<use xlink:href="#path1_fill" transform="translate(-422.3 -266.4)"/>
</g>
<g id="Vector">
<use xlink:href="#path2_fill" transform="translate(-422.3 -274.5)"/>
</g>
<g id="Vector">
<use xlink:href="#path3_fill" transform="translate(-422.3 -283)"/>
</g>
<g id="Vector">
<use xlink:href="#path4_fill" transform="translate(-443.826 -287.25)"/>
</g>
<g id="Vector">
<use xlink:href="#path5_fill" transform="translate(-430.9 -259.1)"/>
</g>
<g id="Vector">
<use xlink:href="#path6_fill" transform="translate(-436.1 -259.1)"/>
</g>
<g id="Vector">
<use xlink:href="#path7_fill" transform="translate(-441.4 -259.1)"/>
</g>
</g>
</g>
</g>
<defs>
<path id="path0_fill" d="M 47.5 0L 20.9 0C 20.6 0 20.4 0.2 20.4 0.5L 20.4 23.9C 19.7 23.6 18.9 23.5 18.1 23.5L 6.4 23.5C 2.9 23.5 0 26.4 0 29.9L 0 35.7C 0 39.1 2.8 42 6.4 42L 8.8 42L 12.1 47.7C 12.2 47.9 12.4 47.9 12.5 47.9C 12.6 47.9 12.7 47.9 12.7 47.8C 12.9 47.7 13 47.4 12.9 47.1L 9.3 41L 6.4 41C 3.4 41 1 38.6 1 35.6L 1 29.8C 1 26.8 3.4 24.4 6.4 24.4L 18.1 24.4C 18.9 24.4 19.7 24.6 20.4 24.9L 20.4 32.6C 20.4 32.9 20.6 33.1 20.9 33.1L 23.5 33.1L 23.5 35.5C 23.5 38.5 21.1 40.9 18.1 40.9L 13.2 40.9C 12.9 40.9 12.7 41.1 12.7 41.4C 12.7 41.7 12.9 41.9 13.2 41.9L 18.1 41.9C 21.6 41.9 24.5 39 24.5 35.5L 24.5 33.1L 47.5 33.1C 47.8 33.1 48 32.9 48 32.6L 48 0.5C 48 0.2 47.8 0 47.5 0ZM 47 32.2L 21.4 32.2L 21.4 1L 47 1L 47 32.2Z"/>
<path id="path1_fill" d="M 1.3 2.6L 17.6 2.6C 18.3 2.6 18.9 2 18.9 1.3C 18.9 0.6 18.3 3.8147e-07 17.6 3.8147e-07L 1.3 3.8147e-07C 0.6 3.8147e-07 7.62939e-07 0.6 7.62939e-07 1.3C 7.62939e-07 2 0.6 2.6 1.3 2.6ZM 1.3 0.9L 17.6 0.9C 17.8 0.9 17.9 1.1 17.9 1.2C 17.9 1.3 17.7 1.5 17.6 1.5L 1.3 1.5C 1.1 1.5 1 1.3 1 1.2C 1 1.1 1.1 0.9 1.3 0.9Z"/>
<path id="path2_fill" d="M 1.3 2.6L 17.6 2.6C 18.3 2.6 18.9 2 18.9 1.3C 18.9 0.599999 18.3 0 17.6 0L 1.3 0C 0.6 0 7.62939e-07 0.599999 7.62939e-07 1.3C 7.62939e-07 2 0.6 2.6 1.3 2.6ZM 1.3 1L 17.6 1C 17.8 1 17.9 1.2 17.9 1.3C 17.9 1.4 17.7 1.6 17.6 1.6L 1.3 1.6C 1.1 1.6 1 1.4 1 1.3C 1 1.2 1.1 1 1.3 1Z"/>
<path id="path3_fill" d="M 1.3 2.7L 17.6 2.7C 18.3 2.7 18.9 2.1 18.9 1.4C 18.9 0.7 18.4 0 17.6 0L 1.3 0C 0.6 0 7.62939e-07 0.6 7.62939e-07 1.3C 7.62939e-07 2 0.6 2.7 1.3 2.7ZM 1.3 1L 17.6 1C 17.8 1 17.9 1.2 17.9 1.3C 17.9 1.5 17.7 1.6 17.6 1.6L 1.3 1.6C 1.1 1.6 1 1.4 1 1.3C 1 1.1 1.1 1 1.3 1Z"/>
<path id="path4_fill" d="M 0.426013 12.95C 0.726013 12.95 0.926013 12.75 0.926013 12.45C 0.926013 7.85 4.62601 4.15 9.22601 4.15L 11.826 4.15L 9.72601 6.25C 9.52601 6.45 9.52601 6.75 9.72601 6.95C 9.82601 7.05 9.92601 7.05 10.126 7.05C 10.326 7.05 10.426 7.05 10.526 6.95L 13.526 3.95C 13.526 3.95 13.626 3.85 13.626 3.75C 13.726 3.65 13.726 3.45 13.626 3.35C 13.626 3.25 13.526 3.25 13.526 3.15L 10.526 0.15C 10.326 -0.0499999 10.026 -0.0499999 9.82601 0.15C 9.62601 0.35 9.62601 0.65 9.82601 0.85L 11.826 3.05L 9.32601 3.05C 4.12601 3.05 0.026013 7.25 0.026013 12.35C -0.073987 12.65 0.126013 12.95 0.426013 12.95Z"/>
<path id="path5_fill" d="M 3.2 1.6C 3.2 0.7 2.5 -3.8147e-07 1.6 -3.8147e-07C 0.700001 -3.8147e-07 3.8147e-07 0.7 3.8147e-07 1.6C 3.8147e-07 2.5 0.700001 3.2 1.6 3.2C 2.4 3.3 3.2 2.5 3.2 1.6ZM 0.9 1.6C 0.9 1.3 1.2 1 1.5 1C 1.9 1 2.1 1.3 2.1 1.6C 2.1 2 1.8 2.2 1.5 2.2C 1.2 2.3 0.9 2 0.9 1.6Z"/>
<path id="path6_fill" d="M 3.2 1.6C 3.2 0.7 2.5 -3.8147e-07 1.6 -3.8147e-07C 0.7 -3.8147e-07 -3.8147e-07 0.7 -3.8147e-07 1.6C -3.8147e-07 2.5 0.7 3.2 1.6 3.2C 2.5 3.2 3.2 2.5 3.2 1.6ZM 1.6 2.3C 1.2 2.3 1 2 1 1.7C 1 1.4 1.3 1.1 1.6 1.1C 1.9 1.1 2.2 1.4 2.2 1.7C 2.2 2 1.9 2.3 1.6 2.3Z"/>
<path id="path7_fill" d="M -9.53674e-08 1.6C -9.53674e-08 2.5 0.7 3.2 1.6 3.2C 2.5 3.2 3.2 2.5 3.2 1.6C 3.2 0.7 2.5 -3.8147e-07 1.6 -3.8147e-07C 0.7 -3.8147e-07 -9.53674e-08 0.7 -9.53674e-08 1.6ZM 2.3 1.6C 2.3 1.9 2 2.2 1.7 2.2C 1.4 2.2 1.1 1.9 1.1 1.6C 1.1 1.2 1.4 1 1.7 1C 2 1 2.3 1.3 2.3 1.6Z"/>
</defs>
</svg>
